<?xml version="1.0" encoding="UTF-8" standalone="no" ?>
<!DOCTYPE svg PUBLIC "-//W3C//DTD SVG 1.1//EN" "http://www.w3.org/Graphics/SVG/1.1/DTD/svg11.dtd">
<svg xmlns="http://www.w3.org/2000/svg" xmlns:xlink="http://www.w3.org/1999/xlink" version="1.1" width="90" height="900" viewBox="0 0 90 900" xml:space="preserve">
<desc>Created with Fabric.js 4.2.0</desc>
<defs>
</defs>
<rect x="0" y="0" width="100%" height="100%" fill="transparent"></rect>
<g transform="matrix(0 0 0 0 0 0)" id="ee771f01-5d59-41fd-a034-ae9461ffce7a"  >
</g>
<g transform="matrix(1 0 0 1 45 450)" id="cf9315c7-743f-464d-a13b-9ee458c2b9fa"  >
<rect style="stroke: none; stroke-width: 1; stroke-dasharray: none; stroke-linecap: butt; stroke-dashoffset: 0; stroke-linejoin: miter; stroke-miterlimit: 4; fill: rgb(255,255,255); fill-opacity: 0; fill-rule: nonzero; opacity: 1;" vector-effect="non-scaling-stroke"  x="-45" y="-450" rx="0" ry="0" width="90" height="900" />
</g>
<g transform="matrix(2.61 0 0 3.99 501.01 450)"  >
<g style="" vector-effect="non-scaling-stroke"   >
		<g transform="matrix(1 0 0 1 -174.17 0.02)"  >
<path style="stroke: none; stroke-width: 1; stroke-dasharray: none; stroke-linecap: butt; stroke-dashoffset: 0; stroke-linejoin: miter; stroke-miterlimit: 4; fill: rgb(204,164,52); fill-rule: evenodd; opacity: 1;" vector-effect="non-scaling-stroke"  transform=" translate(-20.49, -112.52)" d="M 7.45 0.147 C 7.709 0.197 8.084 0.195 8.284 0.143 C 8.483 0.091 8.271 0.05 7.813 0.053 C 7.354 0.055 7.191 0.098 7.45 0.147 M 9.847 0.149 C 10.163 0.197 10.632 0.196 10.888 0.147 C 11.145 0.097 10.885 0.058 10.313 0.06 C 9.74 0.061 9.53 0.102 9.847 0.149 M 12.124 0.11 C 12.184 0.17 12.996 0.24 13.929 0.266 C 14.884 0.292 15.628 0.404 15.632 0.521 C 15.646 0.921 15.594 10.163 15.532 18.021 C 15.498 22.375 15.458 29.15 15.444 33.076 L 15.417 40.214 L 14.219 41.468 C 13.56 42.157 12.083 43.679 10.938 44.85 C 9.792 46.021 8.692 47.214 8.493 47.5 C 8.156 47.985 8.13 49.438 8.105 68.646 C 8.034 125.03 8.043 123.903 7.68 124.311 C 7.496 124.518 6.958 125.082 6.485 125.565 C 6.012 126.047 5.625 126.516 5.625 126.606 C 5.625 126.697 5.354 127.052 5.022 127.396 C 4.691 127.74 4.079 128.384 3.663 128.828 L 2.907 129.635 L 2.946 145.495 C 2.999 167.229 3.063 185.134 3.097 187.455 L 3.125 189.389 L 3.75 188.75 C 4.094 188.398 4.375 188.004 4.375 187.875 C 4.375 187.745 4.432 187.696 4.502 187.766 C 4.572 187.836 5.32 187.195 6.164 186.342 C 7.009 185.489 7.796 184.792 7.912 184.792 C 8.029 184.792 8.125 184.651 8.125 184.479 C 8.125 184.307 8.195 184.167 8.281 184.166 C 8.367 184.166 8.71 183.932 9.043 183.646 C 9.376 183.359 9.58 183.125 9.497 183.125 C 9.413 183.125 9.486 182.984 9.658 182.813 C 9.83 182.641 10.01 182.5 10.058 182.5 C 10.106 182.5 10.938 181.727 11.907 180.781 L 13.668 179.063 L 13.628 175.625 C 13.587 172.103 13.392 156.846 13.222 143.854 C 13.169 139.844 13.082 132.917 13.028 128.461 C 12.923 119.844 12.936 120.011 12.421 120.526 C 12.235 120.711 12.083 120.818 12.083 120.763 C 12.083 120.667 11.378 121.236 10.256 122.24 C 9.967 122.497 9.698 122.708 9.658 122.708 C 9.619 122.708 9.638 106.144 9.701 85.899 L 9.816 49.09 L 10.429 48.392 C 10.766 48.008 11.042 47.588 11.042 47.458 C 11.042 47.328 11.096 47.277 11.163 47.343 C 11.229 47.41 12.01 46.745 12.899 45.867 C 13.788 44.989 14.999 43.832 15.591 43.296 C 16.183 42.76 16.667 42.226 16.667 42.11 C 16.667 41.994 16.775 41.833 16.907 41.751 C 17.057 41.658 17.091 41.694 16.997 41.845 C 16.915 41.979 18.114 40.845 19.663 39.326 C 21.212 37.806 22.905 36.164 23.425 35.677 C 23.945 35.19 24.318 34.792 24.254 34.792 C 24.19 34.792 24.278 34.651 24.449 34.479 C 24.621 34.307 24.818 34.167 24.886 34.167 C 24.954 34.167 25.003 37.777 24.995 42.189 L 24.981 50.212 L 23.698 51.46 C 22.992 52.147 22.481 52.708 22.563 52.708 C 22.645 52.708 22.094 53.341 21.338 54.115 C 20.583 54.888 19.551 55.952 19.045 56.478 L 18.125 57.435 L 18.14 74.707 C 18.148 84.537 18.231 91.8 18.333 91.563 C 18.432 91.333 18.519 91.217 18.527 91.304 C 18.543 91.478 19.405 90.767 20.772 89.45 C 21.264 88.976 21.667 88.628 21.667 88.678 C 21.667 88.727 22.171 88.272 22.787 87.665 C 23.403 87.059 24.395 86.141 24.991 85.625 C 25.587 85.109 26.536 84.23 27.1 83.671 C 27.664 83.112 28.125 82.717 28.125 82.794 C 28.125 82.871 28.496 82.555 28.95 82.092 C 29.404 81.629 29.862 81.25 29.967 81.25 C 30.073 81.25 30.209 81.06 30.27 80.827 C 30.331 80.595 30.459 80.428 30.555 80.457 C 30.651 80.485 31.057 80.194 31.458 79.81 C 31.859 79.426 32.061 79.182 31.906 79.268 C 31.679 79.395 31.671 79.34 31.862 78.983 C 31.992 78.74 32.147 78.542 32.207 78.542 C 32.267 78.542 32.252 78.659 32.174 78.802 C 32.096 78.945 32.418 78.641 32.889 78.125 C 33.36 77.609 34.394 76.484 35.187 75.625 C 35.979 74.766 36.918 73.748 37.272 73.363 C 37.713 72.886 37.917 72.77 37.917 72.999 C 37.917 73.183 37.987 73.333 38.073 73.333 C 38.159 73.333 38.263 65.157 38.304 55.163 L 38.379 36.993 L 37.471 37.8 C 36.109 39.01 35.844 39.315 36.002 39.49 C 36.081 39.578 36.05 39.596 35.933 39.53 C 35.816 39.464 34.702 40.433 33.458 41.684 C 32.214 42.935 31.109 43.958 31.002 43.958 C 30.896 43.958 30.867 44.052 30.938 44.167 C 31.008 44.281 30.977 44.375 30.867 44.375 C 30.553 44.375 29.375 45.481 29.375 45.776 C 29.375 45.922 29.296 46.018 29.199 45.99 C 29.103 45.961 28.489 46.479 27.835 47.141 C 27.181 47.804 26.57 48.298 26.476 48.24 C 26.328 48.149 26.276 41.218 26.165 6.832 L 26.143 0.226 L 26.665 0.144 C 26.953 0.099 23.773 0.048 19.601 0.031 C 15.428 0.014 12.063 0.049 12.124 0.11 M 27.659 0.147 C 27.918 0.197 28.293 0.195 28.492 0.143 C 28.691 0.091 28.479 0.05 28.021 0.053 C 27.563 0.055 27.4 0.098 27.659 0.147 M 33.025 86.615 C 33.133 87.01 33.071 87.083 32.633 87.083 C 32.139 87.083 31.458 87.555 31.458 87.898 C 31.458 87.986 31.224 88.165 30.938 88.295 C 30.651 88.426 30.417 88.635 30.417 88.76 C 30.417 89.072 29.872 89.594 29.712 89.435 C 29.641 89.364 29.583 89.477 29.583 89.688 C 29.583 89.898 29.528 90.014 29.46 89.946 C 29.391 89.878 28.923 90.287 28.418 90.855 C 27.913 91.424 27.5 91.827 27.5 91.751 C 27.5 91.53 25.495 93.661 25.352 94.035 C 25.28 94.222 25.114 94.375 24.982 94.375 C 24.85 94.375 23.488 95.643 21.954 97.194 L 19.167 100.012 L 19.159 105.475 C 19.048 186.441 19.092 182.708 18.255 182.708 C 18.106 182.708 17.877 182.943 17.746 183.229 C 17.616 183.516 17.369 183.75 17.199 183.75 C 17.028 183.75 16.748 184.008 16.577 184.323 C 16.407 184.638 16.263 184.816 16.258 184.718 C 16.254 184.62 15.648 185.151 14.912 185.897 C 14.177 186.644 13.52 187.201 13.454 187.135 C 13.388 187.068 13.333 187.186 13.333 187.396 C 13.333 187.606 13.277 187.722 13.209 187.653 C 13.14 187.585 11.774 188.835 10.172 190.431 C 8.57 192.027 7.168 193.333 7.055 193.333 C 6.943 193.333 6.909 193.428 6.98 193.543 C 7.051 193.659 6.94 193.814 6.732 193.889 C 6.246 194.064 5.625 194.702 5.625 195.026 C 5.625 195.164 5.571 195.224 5.506 195.159 C 5.44 195.093 4.916 195.515 4.341 196.096 C 3.517 196.928 3.256 197.09 3.106 196.857 C 2.958 196.629 2.923 196.656 2.949 196.979 C 3.01 197.738 2.919 198.359 2.76 198.261 C 2.674 198.208 2.604 204.207 2.604 211.592 L 2.604 225.019 L 3.542 224.957 C 4.247 224.911 4.462 224.819 4.41 224.584 C 4.372 224.412 4.305 221.225 4.262 217.501 C 4.218 213.776 4.133 208.131 4.072 204.956 L 3.961 199.183 L 4.533 198.641 C 4.847 198.344 5.362 197.855 5.677 197.557 C 5.992 197.258 6.25 196.945 6.25 196.861 C 6.25 196.777 6.578 196.514 6.979 196.278 C 7.38 196.041 7.708 195.704 7.708 195.528 C 7.708 195.352 7.817 195.208 7.949 195.208 C 8.082 195.208 8.891 194.505 9.748 193.646 C 10.604 192.786 11.346 192.083 11.397 192.083 C 11.579 192.083 12.083 191.482 12.083 191.265 C 12.083 191.142 12.181 191.042 12.301 191.042 C 12.42 191.042 13.585 189.987 14.889 188.698 C 16.193 187.409 17.455 186.216 17.693 186.047 C 17.931 185.878 18.18 185.572 18.245 185.367 C 18.31 185.162 18.444 185.044 18.542 185.104 C 18.64 185.165 18.779 185.027 18.852 184.799 C 18.924 184.57 19.048 184.403 19.127 184.428 C 19.206 184.452 19.669 184.08 20.155 183.6 L 21.04 182.727 L 21.155 141.728 L 21.27 100.729 L 25.886 96.102 C 28.425 93.556 30.525 91.498 30.554 91.527 C 30.584 91.556 30.66 105.966 30.724 123.55 C 30.787 141.134 30.886 167.357 30.941 181.823 L 31.043 208.125 L 29.74 208.146 C 29.024 208.158 25.531 208.192 21.979 208.222 C 18.427 208.251 15.17 208.289 14.742 208.305 L 13.963 208.333 L 14.053 216.488 C 14.15 225.251 14.122 225.062 15.337 224.962 L 16.146 224.896 L 16.109 217.388 L 16.071 209.881 L 17.567 209.872 C 18.389 209.867 21.266 209.796 23.958 209.715 C 26.651 209.634 29.714 209.547 30.764 209.523 C 31.814 209.499 32.723 209.43 32.783 209.37 C 32.842 209.311 32.933 183.529 32.983 152.079 C 33.033 120.628 33.137 93.09 33.213 90.882 C 33.307 88.122 33.28 86.756 33.124 86.507 C 32.929 86.198 32.915 86.213 33.025 86.615 M 23.081 216.002 L 22.307 216.066 L 22.247 220.533 L 22.188 225 L 30.26 225 L 38.333 225 L 38.333 224.063 C 38.333 223.496 38.239 223.125 38.094 223.125 C 37.853 223.125 37.962 217.924 38.224 216.979 C 38.509 215.947 38.441 215.938 30.893 215.938 C 27.022 215.938 23.506 215.966 23.081 216.002" stroke-linecap="round" />
</g>
		<g transform="matrix(1 0 0 1 -174.2 0)"  >
<path style="stroke: none; stroke-width: 1; stroke-dasharray: none; stroke-linecap: butt; stroke-dashoffset: 0; stroke-linejoin: miter; stroke-miterlimit: 4; fill: rgb(204,156,52); fill-rule: evenodd; opacity: 1;" vector-effect="non-scaling-stroke"  transform=" translate(-20.47, -112.51)" d="M 5.159 0.147 C 5.418 0.197 5.793 0.195 5.992 0.143 C 6.191 0.091 5.979 0.05 5.521 0.053 C 5.063 0.055 4.9 0.098 5.159 0.147 M 29.115 0.147 C 29.372 0.197 29.794 0.197 30.052 0.147 C 30.31 0.097 30.099 0.057 29.583 0.057 C 29.068 0.057 28.857 0.097 29.115 0.147 M 31.412 0.153 C 31.902 0.197 32.652 0.196 33.078 0.151 C 33.505 0.107 33.104 0.071 32.188 0.071 C 31.271 0.072 30.922 0.109 31.412 0.153 M 26.098 1.042 C 26.098 1.557 26.139 1.768 26.189 1.51 C 26.238 1.253 26.238 0.831 26.189 0.573 C 26.139 0.315 26.098 0.526 26.098 1.042 M 26.11 6.146 C 26.111 6.948 26.149 7.251 26.194 6.818 C 26.239 6.386 26.238 5.73 26.192 5.36 C 26.146 4.99 26.109 5.344 26.11 6.146 M 15.487 11.875 C 15.487 12.734 15.523 13.086 15.568 12.656 C 15.613 12.227 15.613 11.523 15.568 11.094 C 15.523 10.664 15.487 11.016 15.487 11.875 M 26.108 11.875 C 26.108 12.62 26.146 12.924 26.192 12.552 C 26.239 12.18 26.239 11.57 26.192 11.198 C 26.146 10.826 26.108 11.13 26.108 11.875 M 15.465 14.167 C 15.465 14.568 15.508 14.732 15.56 14.531 C 15.613 14.331 15.613 14.003 15.56 13.802 C 15.508 13.602 15.465 13.766 15.465 14.167 M 15.488 18.021 C 15.489 18.938 15.525 19.287 15.569 18.797 C 15.613 18.307 15.613 17.557 15.568 17.13 C 15.523 16.703 15.487 17.104 15.488 18.021 M 15.469 21.979 C 15.472 22.438 15.514 22.6 15.564 22.341 C 15.614 22.082 15.612 21.707 15.56 21.508 C 15.508 21.309 15.467 21.521 15.469 21.979 M 15.473 25 C 15.473 25.516 15.514 25.727 15.564 25.469 C 15.613 25.211 15.613 24.789 15.564 24.531 C 15.514 24.273 15.473 24.484 15.473 25 M 26.338 37.188 C 26.338 39.594 26.369 40.55 26.406 39.312 C 26.442 38.074 26.442 36.105 26.405 34.937 C 26.368 33.768 26.338 34.781 26.338 37.188 M 15.282 38.438 C 15.282 39.469 15.317 39.917 15.361 39.433 C 15.404 38.95 15.405 38.106 15.362 37.558 C 15.319 37.011 15.283 37.406 15.282 38.438 M 37.489 37.656 L 36.771 38.438 L 37.552 37.72 C 38.279 37.051 38.429 36.875 38.27 36.875 C 38.235 36.875 37.884 37.227 37.489 37.656 M 12.917 42.603 C 12.649 42.889 12.475 43.169 12.531 43.226 C 12.588 43.282 12.841 43.048 13.094 42.706 C 13.655 41.947 13.576 41.902 12.917 42.603 M 26.325 46.25 C 26.325 47.339 26.36 47.784 26.403 47.24 C 26.446 46.695 26.446 45.805 26.403 45.26 C 26.36 44.716 26.325 45.161 26.325 46.25 M 38.216 65.938 C 38.216 68.917 38.245 70.106 38.281 68.581 C 38.316 67.056 38.316 64.619 38.281 63.165 C 38.245 61.711 38.216 62.958 38.216 65.938 M 8.01 82.813 C 8.01 86.594 8.038 88.17 8.072 86.315 C 8.107 84.461 8.107 81.367 8.073 79.44 C 8.038 77.514 8.01 79.031 8.01 82.813 M 9.662 79.375 C 9.662 80.693 9.696 81.232 9.737 80.573 C 9.779 79.914 9.779 78.836 9.737 78.177 C 9.696 77.518 9.662 78.057 9.662 79.375 M 31.848 79.009 C 31.658 79.363 31.681 79.382 32.056 79.181 C 32.614 78.883 32.766 78.611 32.375 78.611 C 32.202 78.611 31.965 78.79 31.848 79.009 M 32.978 86.338 C 32.997 86.997 33.034 87.063 33.189 86.715 C 33.307 86.453 33.298 86.15 33.167 85.915 C 32.997 85.612 32.96 85.694 32.978 86.338 M 9.661 88.021 C 9.662 89.281 9.696 89.77 9.738 89.107 C 9.779 88.444 9.779 87.413 9.737 86.815 C 9.695 86.218 9.661 86.76 9.661 88.021 M 28.233 90.83 C 27.787 91.286 27.464 91.69 27.514 91.728 C 27.563 91.766 27.968 91.393 28.412 90.899 C 29.428 89.77 29.311 89.725 28.233 90.83 M 25.832 96.198 L 21.146 100.938 L 25.885 96.252 C 28.492 93.675 30.625 91.542 30.625 91.512 C 30.625 91.364 30.186 91.794 25.832 96.198 M 33.173 93.333 C 33.173 93.734 33.216 93.898 33.269 93.698 C 33.321 93.497 33.321 93.169 33.269 92.969 C 33.216 92.768 33.173 92.932 33.173 93.333 M 7.995 96.146 C 7.995 97.406 8.029 97.895 8.071 97.232 C 8.112 96.569 8.112 95.538 8.07 94.94 C 8.028 94.343 7.994 94.885 7.995 96.146 M 9.66 96.667 C 9.66 97.87 9.695 98.362 9.737 97.76 C 9.779 97.159 9.779 96.174 9.737 95.573 C 9.695 94.971 9.66 95.464 9.66 96.667 M 33.182 95.417 C 33.182 95.932 33.222 96.143 33.272 95.885 C 33.322 95.628 33.322 95.206 33.272 94.948 C 33.222 94.69 33.182 94.901 33.182 95.417 M 7.995 100.833 C 7.995 102.151 8.029 102.69 8.071 102.031 C 8.112 101.372 8.112 100.294 8.071 99.635 C 8.029 98.977 7.995 99.516 7.995 100.833 M 9.66 101.042 C 9.66 102.245 9.695 102.737 9.737 102.135 C 9.779 101.534 9.779 100.549 9.737 99.948 C 9.695 99.346 9.66 99.839 9.66 101.042 M 32.965 102.708 C 32.965 103.109 33.008 103.273 33.06 103.073 C 33.113 102.872 33.113 102.544 33.06 102.344 C 33.008 102.143 32.965 102.307 32.965 102.708 M 19.044 107.396 C 19.045 109.458 19.076 110.274 19.114 109.208 C 19.152 108.143 19.151 106.455 19.113 105.458 C 19.075 104.461 19.044 105.333 19.044 107.396 M 32.965 105.208 C 32.965 105.609 33.008 105.773 33.06 105.573 C 33.113 105.372 33.113 105.044 33.06 104.844 C 33.008 104.643 32.965 104.807 32.965 105.208 M 7.995 109.688 C 7.995 110.948 8.029 111.437 8.071 110.774 C 8.112 110.111 8.112 109.079 8.07 108.482 C 8.028 107.885 7.994 108.427 7.995 109.688 M 9.661 109.688 C 9.662 110.948 9.696 111.437 9.738 110.774 C 9.779 110.111 9.779 109.079 9.737 108.482 C 9.695 107.885 9.661 108.427 9.661 109.688 M 19.044 114.792 C 19.044 116.797 19.075 117.617 19.113 116.615 C 19.152 115.612 19.152 113.971 19.113 112.969 C 19.075 111.966 19.044 112.786 19.044 114.792 M 9.66 114.167 C 9.66 115.37 9.695 115.862 9.737 115.26 C 9.779 114.659 9.779 113.674 9.737 113.073 C 9.695 112.471 9.66 112.964 9.66 114.167 M 30.699 115.521 C 30.698 116.552 30.734 117 30.777 116.517 C 30.821 116.033 30.821 115.189 30.778 114.642 C 30.735 114.094 30.7 114.49 30.699 115.521 M 7.995 118.542 C 7.995 119.859 8.029 120.398 8.071 119.74 C 8.112 119.081 8.112 118.003 8.071 117.344 C 8.029 116.685 7.995 117.224 7.995 118.542 M 9.66 118.542 C 9.66 119.745 9.695 120.237 9.737 119.635 C 9.779 119.034 9.779 118.049 9.737 117.448 C 9.695 116.846 9.66 117.339 9.66 118.542 M 19.044 122.188 C 19.045 124.25 19.076 125.066 19.114 124 C 19.152 122.934 19.151 121.247 19.113 120.25 C 19.075 119.253 19.044 120.125 19.044 122.188 M 12.989 122.083 C 12.989 123.057 13.025 123.456 13.069 122.969 C 13.113 122.482 13.113 121.685 13.069 121.198 C 13.025 120.711 12.989 121.109 12.989 122.083 M 30.699 122.188 C 30.698 123.219 30.734 123.667 30.777 123.183 C 30.821 122.7 30.821 121.856 30.778 121.308 C 30.735 120.761 30.7 121.156 30.699 122.188 M 6.576 125.365 C 6.126 125.94 6.09 126.037 6.439 125.731 C 6.857 125.367 7.408 124.583 7.247 124.583 C 7.214 124.583 6.912 124.935 6.576 125.365 M 12.976 125.521 C 12.978 126.094 13.018 126.303 13.066 125.987 C 13.114 125.67 13.113 125.201 13.063 124.945 C 13.014 124.689 12.975 124.948 12.976 125.521 M 5.018 127.163 L 4.515 127.813 L 5.111 127.246 C 5.439 126.934 5.665 126.642 5.614 126.596 C 5.563 126.551 5.295 126.806 5.018 127.163 M 30.698 129.167 C 30.698 130.141 30.734 130.539 30.778 130.052 C 30.821 129.565 30.821 128.768 30.778 128.281 C 30.734 127.794 30.698 128.193 30.698 129.167 M 3.66 128.698 C 3.209 129.273 3.173 129.37 3.523 129.065 C 3.94 128.7 4.491 127.917 4.33 127.917 C 4.298 127.917 3.996 128.268 3.66 128.698 M 2.794 133.854 C 2.793 135.802 2.825 136.627 2.863 135.687 C 2.902 134.748 2.902 133.154 2.864 132.146 C 2.825 131.137 2.794 131.906 2.794 133.854 M 30.698 132.708 C 30.698 133.682 30.734 134.081 30.778 133.594 C 30.821 133.107 30.821 132.31 30.778 131.823 C 30.734 131.336 30.698 131.734 30.698 132.708 M 21.12 134.583 C 21.12 135.901 21.154 136.44 21.196 135.781 C 21.237 135.122 21.237 134.044 21.196 133.385 C 21.154 132.727 21.12 133.266 21.12 134.583 M 19.052 140.417 C 19.052 144.599 19.08 146.31 19.114 144.219 C 19.148 142.128 19.148 138.706 19.114 136.615 C 19.08 134.523 19.052 136.234 19.052 140.417 M 13.195 138.75 C 13.195 139.609 13.232 139.961 13.277 139.531 C 13.322 139.102 13.322 138.398 13.277 137.969 C 13.232 137.539 13.195 137.891 13.195 138.75 M 30.716 142.917 C 30.716 145.839 30.745 147.034 30.781 145.573 C 30.816 144.112 30.816 141.721 30.781 140.26 C 30.745 138.799 30.716 139.995 30.716 142.917 M 21.121 144.063 C 21.122 145.438 21.155 145.973 21.196 145.252 C 21.237 144.532 21.237 143.407 21.195 142.752 C 21.154 142.098 21.121 142.688 21.121 144.063 M 21.121 153.854 C 21.122 155.229 21.155 155.765 21.196 155.044 C 21.237 154.323 21.237 153.198 21.195 152.544 C 21.154 151.89 21.121 152.479 21.121 153.854 M 13.405 155.729 C 13.406 156.646 13.442 156.995 13.486 156.505 C 13.53 156.015 13.53 155.265 13.485 154.838 C 13.44 154.412 13.404 154.813 13.405 155.729 M 19.044 158.646 C 19.045 160.708 19.076 161.524 19.114 160.458 C 19.152 159.393 19.151 157.705 19.113 156.708 C 19.075 155.711 19.044 156.583 19.044 158.646 M 21.12 158.75 C 21.12 160.068 21.154 160.607 21.196 159.948 C 21.237 159.289 21.237 158.211 21.196 157.552 C 21.154 156.893 21.12 157.432 21.12 158.75 M 13.393 159.271 C 13.394 159.844 13.435 160.053 13.483 159.737 C 13.531 159.42 13.529 158.951 13.48 158.695 C 13.431 158.439 13.391 158.698 13.393 159.271 M 2.989 163.125 C 2.989 164.099 3.025 164.497 3.069 164.01 C 3.113 163.523 3.113 162.727 3.069 162.24 C 3.025 161.753 2.989 162.151 2.989 163.125 M 21.135 173.229 C 21.136 177.24 21.164 178.851 21.198 176.809 C 21.232 174.768 21.232 171.487 21.198 169.518 C 21.163 167.549 21.135 169.219 21.135 173.229 M 2.989 170.208 C 2.989 171.182 3.025 171.581 3.069 171.094 C 3.113 170.607 3.113 169.81 3.069 169.323 C 3.025 168.836 2.989 169.234 2.989 170.208 M 19.044 173.333 C 19.044 175.339 19.075 176.159 19.113 175.156 C 19.152 174.154 19.152 172.513 19.113 171.51 C 19.075 170.508 19.044 171.328 19.044 173.333 M 13.601 171.979 C 13.603 172.552 13.643 172.762 13.691 172.445 C 13.739 172.128 13.738 171.66 13.688 171.403 C 13.639 171.147 13.6 171.406 13.601 171.979 M 30.907 173.854 C 30.907 174.885 30.942 175.334 30.986 174.85 C 31.029 174.367 31.03 173.523 30.987 172.975 C 30.944 172.427 30.908 172.823 30.907 173.854 M 2.989 176.875 C 2.989 177.849 3.025 178.247 3.069 177.76 C 3.113 177.273 3.113 176.477 3.069 175.99 C 3.025 175.503 2.989 175.901 2.989 176.875 M 2.989 180.417 C 2.989 181.391 3.025 181.789 3.069 181.302 C 3.113 180.815 3.113 180.018 3.069 179.531 C 3.025 179.044 2.989 179.443 2.989 180.417 M 30.906 180.625 C 30.906 181.599 30.942 181.997 30.986 181.51 C 31.03 181.023 31.03 180.227 30.986 179.74 C 30.942 179.253 30.906 179.651 30.906 180.625 M 2.92 189.288 C 2.922 191.597 2.995 192.907 3.112 192.723 C 3.287 192.446 3.181 185.836 2.999 185.642 C 2.954 185.595 2.918 187.235 2.92 189.288 M 30.919 189.063 C 30.918 191.01 30.95 191.835 30.988 190.896 C 31.027 189.956 31.027 188.362 30.989 187.354 C 30.95 186.346 30.919 187.115 30.919 189.063 M 7.591 192.722 C 7.255 193.073 7.12 193.303 7.292 193.234 C 7.572 193.12 8.461 192.083 8.278 192.083 C 8.237 192.083 7.928 192.371 7.591 192.722 M 2.973 194.583 C 2.973 195.099 3.014 195.31 3.064 195.052 C 3.113 194.794 3.113 194.372 3.064 194.115 C 3.014 193.857 2.973 194.068 2.973 194.583 M 30.919 199.271 C 30.918 201.219 30.95 202.044 30.988 201.104 C 31.027 200.164 31.027 198.571 30.989 197.562 C 30.95 196.554 30.919 197.323 30.919 199.271 M 6.644 196.51 C 6.292 196.806 5.742 197.5 5.861 197.5 C 5.904 197.5 6.204 197.219 6.529 196.875 C 7.136 196.232 7.193 196.05 6.644 196.51 M 2.598 211.25 C 2.598 218.297 2.624 221.18 2.656 217.656 C 2.688 214.133 2.688 208.367 2.656 204.844 C 2.624 201.32 2.598 204.203 2.598 211.25 M 4.023 200.521 C 4.024 201.208 4.063 201.464 4.109 201.09 C 4.156 200.716 4.155 200.153 4.107 199.84 C 4.06 199.527 4.022 199.833 4.023 200.521 M 30.906 204.583 C 30.906 205.557 30.942 205.956 30.986 205.469 C 31.03 204.982 31.03 204.185 30.986 203.698 C 30.942 203.211 30.906 203.609 30.906 204.583 M 19.427 208.269 C 19.628 208.321 19.956 208.321 20.156 208.269 C 20.357 208.216 20.193 208.173 19.792 208.173 C 19.391 208.173 19.227 208.216 19.427 208.269 M 22.76 208.269 C 22.961 208.321 23.289 208.321 23.49 208.269 C 23.69 208.216 23.526 208.173 23.125 208.173 C 22.724 208.173 22.56 208.216 22.76 208.269 M 26.302 208.269 C 26.503 208.321 26.831 208.321 27.031 208.269 C 27.232 208.216 27.068 208.173 26.667 208.173 C 26.266 208.173 26.102 208.216 26.302 208.269 M 16.098 211.042 C 16.098 211.557 16.139 211.768 16.189 211.51 C 16.238 211.253 16.238 210.831 16.189 210.573 C 16.139 210.315 16.098 210.526 16.098 211.042 M 4.219 213.854 C 4.222 214.313 4.264 214.475 4.314 214.216 C 4.364 213.957 4.362 213.582 4.31 213.383 C 4.258 213.184 4.217 213.396 4.219 213.854 M 4.223 216.042 C 4.223 216.557 4.264 216.768 4.314 216.51 C 4.363 216.253 4.363 215.831 4.314 215.573 C 4.264 215.315 4.223 215.526 4.223 216.042 M 38.051 218.364 C 37.845 220.334 37.888 223.125 38.125 223.125 C 38.254 223.125 38.333 221.979 38.333 220.104 C 38.333 216.828 38.259 216.37 38.051 218.364 M 14.018 219.063 C 14.019 219.635 14.06 219.845 14.108 219.528 C 14.156 219.212 14.154 218.743 14.105 218.487 C 14.056 218.23 14.016 218.49 14.018 219.063 M 16.409 224.939 C 16.668 224.989 17.043 224.987 17.242 224.935 C 17.441 224.883 17.229 224.842 16.771 224.844 C 16.313 224.847 16.15 224.889 16.409 224.939" stroke-linecap="round" />
</g>
		<g transform="matrix(1 0 0 1 33.72 105.98)"  >
<path style="stroke: none; stroke-width: 1; stroke-dasharray: none; stroke-linecap: butt; stroke-dashoffset: 0; stroke-linejoin: miter; stroke-miterlimit: 4; fill: rgb(52,48,38); fill-rule: evenodd; opacity: 1;" vector-effect="non-scaling-stroke"  transform=" translate(-228.39, -218.48)" d="M 358.578 212.031 C 366.102 212.062 378.477 212.062 386.078 212.031 C 393.678 212.001 387.521 211.976 372.396 211.976 C 357.271 211.976 351.053 212.001 358.578 212.031 M 277.777 212.24 C 285.319 212.27 297.601 212.27 305.068 212.24 C 312.536 212.209 306.365 212.184 291.354 212.184 C 276.344 212.184 270.234 212.209 277.777 212.24 M 196.719 212.448 C 204.138 212.478 216.279 212.478 223.698 212.448 C 231.117 212.418 225.047 212.393 210.208 212.393 C 195.37 212.393 189.299 212.418 196.719 212.448 M 115.781 212.656 C 123.143 212.687 135.19 212.687 142.552 212.656 C 149.914 212.626 143.891 212.601 129.167 212.601 C 114.443 212.601 108.419 212.626 115.781 212.656 M 70.721 221.719 C 69.143 223.352 67.703 224.751 67.52 224.829 C 67.327 224.911 67.556 224.977 68.064 224.985 C 68.903 224.999 68.988 224.94 70.054 223.594 C 71.83 221.351 73.777 218.75 73.679 218.75 C 73.629 218.75 72.298 220.086 70.721 221.719" stroke-linecap="round" />
</g>
		<g transform="matrix(1 0 0 1 -194.67 -112.51)"  >
<path style="stroke: none; stroke-width: 1; stroke-dasharray: none; stroke-linecap: butt; stroke-dashoffset: 0; stroke-linejoin: miter; stroke-miterlimit: 4; fill: rgb(208,164,44); fill-rule: evenodd; opacity: 1;" vector-effect="non-scaling-stroke"  transform=" translate(0, 0)" d="" stroke-linecap="round" />
</g>
		<g transform="matrix(1 0 0 1 -194.67 -112.51)"  >
<path style="stroke: none; stroke-width: 1; stroke-dasharray: none; stroke-linecap: butt; stroke-dashoffset: 0; stroke-linejoin: miter; stroke-miterlimit: 4; fill: rgb(208,164,44); fill-rule: evenodd; opacity: 1;" vector-effect="non-scaling-stroke"  transform=" translate(0, 0)" d="" stroke-linecap="round" />
</g>
</g>
</g>
</svg>