<?xml version="1.0" encoding="utf-8"?>

<!DOCTYPE svg PUBLIC "-//W3C//DTD SVG 1.1//EN" "http://www.w3.org/Graphics/SVG/1.1/DTD/svg11.dtd">
<svg version="1.1" xmlns="http://www.w3.org/2000/svg" xmlns:xlink="http://www.w3.org/1999/xlink" x="0px" y="0px" width="100px"
	 height="100px" viewBox="0 0 100 100" enable-background="new 0 0 100 100" xml:space="preserve">
<g id="Turn_x5F_On_x5F_Off">
	<path fill="none" stroke="white" stroke-width="4" stroke-linecap="round" stroke-linejoin="round" stroke-miterlimit="10" d="
		M33.791,33.604c4.528-4.528,10.462-6.791,16.396-6.791c5.934,0,11.868,2.264,16.396,6.791c4.527,4.527,6.79,10.459,6.791,16.392
		c0.001,5.936-2.263,11.872-6.791,16.4c-9.055,9.055-23.737,9.055-32.792,0S24.736,42.659,33.791,33.604z"/>
	<path fill="none" stroke="white" stroke-width="4" stroke-linecap="round" stroke-linejoin="round" stroke-miterlimit="10" d="
		M56.836,45.568c0.947,1.332,1.504,2.961,1.504,4.719v0c0,4.502-3.65,8.152-8.152,8.152h0c-4.502,0-8.152-3.65-8.152-8.152v0
		c0-1.8,0.583-3.463,1.571-4.812"/>
	
		<line fill="none" stroke="white" stroke-width="4" stroke-linecap="round" stroke-linejoin="round" stroke-miterlimit="10" x1="50.187" y1="50" x2="50.187" y2="42.039"/>
</g>
</svg>
