<svg version="1.1" xmlns="http://www.w3.org/2000/svg" xmlns:xlink="http://www.w3.org/1999/xlink" viewBox="0 0 172 172"><defs><linearGradient x1="87.60175" y1="14.65763" x2="84.39825" y2="157.38269" gradientUnits="userSpaceOnUse" id="color-1"><stop offset="0" stop-color="#00c6ff"></stop><stop offset="1" stop-color="#0072ff"></stop></linearGradient><linearGradient x1="84.73956" y1="27.04969" x2="87.25506" y2="144.61438" gradientUnits="userSpaceOnUse" id="color-2"><stop offset="0" stop-color="#70dfff"></stop><stop offset="1" stop-color="#70afff"></stop></linearGradient></defs><g fill="none" fill-rule="nonzero" stroke="none" stroke-width="1" stroke-linecap="butt" stroke-linejoin="miter" stroke-miterlimit="10" stroke-dasharray="" stroke-dashoffset="0" font-family="none" font-weight="none" font-size="none" text-anchor="none" style="mix-blend-mode: normal"><path d="M0,172v-172h172v172z" fill="none"></path><g><path d="M93.88512,155.875h-15.77025c-3.06106,0 -5.55237,-2.49131 -5.55237,-5.55238v-128.64525c0,-3.06106 2.49131,-5.55238 5.55237,-5.55238h15.77025c3.06106,0 5.55238,2.49131 5.55238,5.55238v128.64256c0,3.06375 -2.49131,5.55506 -5.55238,5.55506zM78.11488,21.5l-0.17737,128.82262l15.94762,0.17738c0.09675,0 0.17738,-0.08062 0.17738,-0.17738v-128.64525z" fill="url(#color-1)"></path><g fill="url(#color-2)"><rect x="31" y="10.409" transform="scale(2.6875,2.6875)" width="2" height="43.182"></rect></g></g></g></svg>